# xmcd CD database file
#
# Track frame offsets:
#	150
#	51367
#	79206
#	114453
#	145933
#	178872
#	209208
#	240520
#	268598
#
# Disc length: 3689 seconds
#
# Revision: 0
# Processed by: cddbd v1.5.2PL0 Copyright (c) Steve Scherf et al.
# Submitted via: CDex 1.70beta1
#
DISCID=880e6709
DTITLE=Lenny Breau - Solo and Trio at Donte's [CD2/2)
DYEAR=2007
DGENRE=Jazz
TTITLE0=13 - Stella by Starlight
TTITLE1=14 - Days Gone By
TTITLE2=15 - There is No Greater Love
TTITLE3=16 - Emily
TTITLE4=17 - There Will Never Be Another You
TTITLE5=18 - When I Fall In Love
TTITLE6=19 - Four
TTITLE7=20 - Lover Man
TTITLE8=21 - Blues #2
EXTD=YEAR: 2007
EXTT0=
EXTT1=
EXTT2=
EXTT3=
EXTT4=
EXTT5=
EXTT6=
EXTT7=
EXTT8=
PLAYORDER=
